# xmcd CD database file
#
# Track frame offsets:
#	150
#	17808
#	36592
#	59754
#	76215
#	96100
#	121643
#	139960
#	179256
#	194981
#	217644
#	231404
#	252044
#	262201
#	286617
#	314214
#	333990
#
# Disc length: 4769 seconds
#
# Revision: 0
# Processed by: cddbd v1.5.2PL0 Copyright (c) Steve Scherf et al.
# Submitted via: CDex 1.51
#
DISCID=04129f11
DTITLE=Van Morrison - Magic Time Press Launch
DYEAR=2005
DGENRE=Blues
TTITLE0=Cute (instrumental)
TTITLE1=Keep Mediocrity At Bay
TTITLE2=Stranded
TTITLE3=Gypsy In My Soul
TTITLE4=Magic Time
TTITLE5=Carry On Regardless
TTITLE6=Lonely And Blue
TTITLE7=Moondance
TTITLE8=They Sold Me Out
TTITLE9=Just Like Greta
TTITLE10=This Love Of Mine
TTITLE11=I'm Confessin'
TTITLE12=Evening Train
TTITLE13=The Lion This Time
TTITLE14=Celtic New Year
TTITLE15=That's Life
TTITLE16=Precious Time (scat ending)
EXTD=YEAR: 2005
EXTT0=
EXTT1=
EXTT2=
EXTT3=
EXTT4=
EXTT5=
EXTT6=
EXTT7=
EXTT8=
EXTT9=
EXTT10=
EXTT11=
EXTT12=
EXTT13=
EXTT14=
EXTT15=
EXTT16=
PLAYORDER=
